<svg xmlns="http://www.w3.org/2000/svg" width="400" height="400" viewBox="0 0 400 400" fill="none"><path d="M326 107H74C58.536 107 46 119.536 46 135V287C46 302.464 58.536 315 74 315H326C341.464 315 354 302.464 354 287V135C354 119.536 341.464 107 326 107Z" fill="url(#paint0_linear_5_89)"></path><path d="M244 85H156C148.268 85 142 91.268 142 99V107C142 114.732 148.268 121 156 121H244C251.732 121 258 114.732 258 107V99C258 91.268 251.732 85 244 85Z" fill="#E07898"></path><path d="M285 117C292.732 117 299 110.732 299 103C299 95.268 292.732 89 285 89C277.268 89 271 95.268 271 103C271 110.732 277.268 117 285 117Z" fill="#D06080"></path><path d="M80 97H66C62.6863 97 60 99.6863 60 103V107C60 110.314 62.6863 113 66 113H80C83.3137 113 86 110.314 86 107V103C86 99.6863 83.3137 97 80 97Z" fill="#FAC8D8"></path><path d="M200 283C239.765 283 272 250.765 272 211C272 171.235 239.765 139 200 139C160.235 139 128 171.235 128 211C128 250.765 160.235 283 200 283Z" fill="#D06080"></path><path d="M200 271C233.137 271 260 244.137 260 211C260 177.863 233.137 151 200 151C166.863 151 140 177.863 140 211C140 244.137 166.863 271 200 271Z" fill="#1A1A2E"></path><path d="M200 259C226.51 259 248 237.51 248 211C248 184.49 226.51 163 200 163C173.49 163 152 184.49 152 211C152 237.51 173.49 259 200 259Z" fill="#D06080"></path><path d="M200 249C220.987 249 238 231.987 238 211C238 190.013 220.987 173 200 173C179.013 173 162 190.013 162 211C162 231.987 179.013 249 200 249Z" fill="#1A1A2E"></path><path d="M200 235C213.255 235 224 224.255 224 211C224 197.745 213.255 187 200 187C186.745 187 176 197.745 176 211C176 224.255 186.745 235 200 235Z" fill="#100C1E"></path><path d="M200 223C206.627 223 212 217.627 212 211C212 204.373 206.627 199 200 199C193.373 199 188 204.373 188 211C188 217.627 193.373 223 200 223Z" fill="#080612"></path><path opacity="0.4" d="M182 202C185.866 202 189 198.866 189 195C189 191.134 185.866 188 182 188C178.134 188 175 191.134 175 195C175 198.866 178.134 202 182 202Z" fill="#FAC8D8"></path><path opacity="0.6" d="M179 195C180.657 195 182 193.657 182 192C182 190.343 180.657 189 179 189C177.343 189 176 190.343 176 192C176 193.657 177.343 195 179 195Z" fill="#FDDDE8"></path><defs>
<linearGradient id="paint0_linear_5_89" x1="46" y1="107" x2="354" y2="315" gradientUnits="userSpaceOnUse">
<stop stop-color="#E07898"></stop>
<stop offset="1" stop-color="#DF658A"></stop>
</linearGradient>
</defs></svg>